<svg width="44" height="46" viewBox="0 0 44 46" fill="none" xmlns="http://www.w3.org/2000/svg">
    <path d="M43.0606 10.1498L22.2326 0.0669785C22.0479 -0.0223262 21.8329 -0.0223262 21.6484 0.0669785L0.820224 10.1498C0.587993 10.2622 0.44043 10.498 0.44043 10.7566V35.2434C0.44043 35.502 0.587993 35.7378 0.820224 35.8502L21.6483 45.933C21.7405 45.9777 21.8405 46 21.9404 46C22.0403 46 22.1402 45.9777 22.2326 45.933L43.0606 35.8502C43.2929 35.7378 43.4404 35.502 43.4404 35.2434V10.7567C43.4404 10.4979 43.2928 10.2623 43.0606 10.1498ZM21.9404 1.42209L41.2229 10.7566L35.6333 13.4625C35.5979 13.4355 35.5605 13.4105 35.5195 13.3906L16.3681 4.11965L21.9404 1.42209ZM14.8505 4.88153L34.1049 14.2025L30.1613 16.1115L10.9149 6.79439L14.8505 4.88153ZM34.5554 15.4808V22.5376L30.8718 24.3208V17.264L34.5554 15.4808ZM42.0965 34.8206L22.6124 44.2526V21.2623L27.26 19.0124C27.5942 18.8506 27.7343 18.4478 27.5729 18.1126C27.4116 17.7776 27.0099 17.6369 26.6756 17.7988L21.9404 20.0912L20.0772 19.1891C19.7429 19.0272 19.3413 19.1679 19.1799 19.503C19.0185 19.8381 19.1587 20.2409 19.4929 20.4028L21.2685 21.2623V44.2526L1.78436 34.8204V11.8301L16.6213 19.0127C16.7155 19.0583 16.815 19.0799 16.913 19.0799C17.1628 19.0799 17.4027 18.9396 17.5185 18.6989C17.6799 18.3637 17.5398 17.9609 17.2056 17.7991L2.658 10.7566L9.3333 7.52509L29.5186 17.2968C29.5215 17.3009 29.5248 17.3046 29.5279 17.3086V25.3945C29.5279 25.6264 29.6468 25.8419 29.8426 25.9652C29.9514 26.0337 30.0755 26.0683 30.2 26.0683C30.2996 26.0683 30.3995 26.0461 30.492 26.0013L35.5195 23.5675C35.7517 23.4551 35.8993 23.2194 35.8993 22.9607V14.8303L42.0965 11.8302V34.8206V34.8206Z" fill="#272343"/>
</svg>
