<svg width="64" height="39" viewBox="0 0 64 39" fill="none" xmlns="http://www.w3.org/2000/svg">
    <path
        d="M13.9634 30.6022C12.8939 30.6022 12.0239 31.4734 12.0239 32.5443C12.0239 33.6153 12.8939 34.4865 13.9634 34.4865C15.0329 34.4865 15.9029 33.6153 15.9029 32.5443C15.9029 31.4734 15.0329 30.6022 13.9634 30.6022Z"
        fill="#272343" />
    <path
        d="M54.0446 30.6022C52.9751 30.6022 52.1051 31.4734 52.1051 32.5443C52.1051 33.6153 52.9751 34.4865 54.0446 34.4865C55.1141 34.4865 55.9841 33.6153 55.9841 32.5443C55.9841 31.4734 55.1141 30.6022 54.0446 30.6022Z"
        fill="#272343" />
    <path
        d="M61.9886 18.1519L54.7706 15.7426L51.397 6.45256C50.9759 5.29284 49.865 4.51364 48.6326 4.51364H39.9516V2.44217C39.9516 1.3712 39.0816 0.5 38.0121 0.5H1.9395C0.87 0.5 0 1.37132 0 2.4423V29.534C0 30.605 0.87 31.4762 1.9395 31.4762H8.11375C8.05075 31.8229 8.01612 32.1796 8.01612 32.5442C8.01612 35.8282 10.6842 38.5 13.9637 38.5C17.2432 38.5 19.9114 35.8282 19.9114 32.5442C19.9114 32.1794 19.8767 31.8229 19.8137 31.4762H48.1946C48.1316 31.8229 48.097 32.1796 48.097 32.5442C48.097 35.8282 50.7651 38.5 54.0446 38.5C57.3241 38.5 59.9922 35.8282 59.9922 32.5442C59.9922 32.0803 59.9372 31.6292 59.8366 31.1956L61.8205 30.2023C63.1647 29.529 64 28.1756 64 26.6701V20.9464C64 19.6766 63.1917 18.5536 61.9886 18.1519ZM1.875 2.4423C1.875 2.40662 1.90387 2.37758 1.9395 2.37758H38.0121C38.0477 2.37758 38.0766 2.4065 38.0766 2.44217V22.5747H1.875V2.4423ZM13.9636 36.6224C11.718 36.6224 9.891 34.7929 9.891 32.5442C9.891 30.2955 11.718 28.466 13.9636 28.466C16.2092 28.466 18.0362 30.2955 18.0362 32.5442C18.0364 34.7929 16.2094 36.6224 13.9636 36.6224ZM38.0766 29.5985H19.1297C18.1044 27.8024 16.1735 26.5884 13.9636 26.5884C11.7537 26.5884 9.823 27.8024 8.79762 29.5985H1.9395C1.90387 29.5985 1.875 29.5696 1.875 29.5339V24.4523H38.0766V29.5985ZM50.8372 10.4049L52.706 15.5511H50.693L48.8242 10.4049H50.8372ZM39.9516 6.39123H48.6326C49.0795 6.39123 49.4822 6.67374 49.635 7.09419L50.1554 8.52716H39.9516V6.39123ZM39.9516 10.4049H46.8291L48.6979 15.5511H39.9516V10.4049V10.4049ZM54.0444 36.6224C51.7988 36.6224 49.9717 34.7929 49.9717 32.5442C49.9717 30.2955 51.7988 28.466 54.0444 28.466C56.29 28.466 58.117 30.2955 58.117 32.5442C58.117 34.7929 56.29 36.6224 54.0444 36.6224ZM62.125 22.5746H61.0585C60.5407 22.5746 60.121 22.9949 60.121 23.5134C60.121 24.0319 60.5407 24.4522 61.0585 24.4522H62.125V26.67C62.125 27.4598 61.6869 28.1697 60.9816 28.5229L59.1258 29.4521C58.0808 27.7363 56.194 26.5884 54.0444 26.5884C51.8345 26.5884 49.9038 27.8024 48.8784 29.5985H39.9516V24.4523H57.0505C57.5682 24.4523 57.988 24.032 57.988 23.5135C57.988 22.9951 57.5682 22.5747 57.0505 22.5747H39.9516V17.4285H53.8923L61.3957 19.9331C61.832 20.0787 62.125 20.4859 62.125 20.9462V22.5746V22.5746Z"
        fill="#272343" />
    <path
        d="M31.4632 11.661L24.4491 7.64751C23.9997 7.39028 23.427 7.54675 23.17 7.99687C22.9131 8.44711 23.0692 9.02053 23.5189 9.27776L27.4679 11.5375H8.95374C8.43599 11.5375 8.01624 11.9578 8.01624 12.4763C8.01624 12.9947 8.43599 13.4149 8.95374 13.4149H27.4679L23.5189 15.6747C23.0694 15.9319 22.9131 16.5053 23.17 16.9556C23.343 17.2587 23.6594 17.4287 23.9849 17.4287C24.1426 17.4287 24.3025 17.3888 24.4491 17.3048L31.4632 13.2913C31.7552 13.1242 31.9356 12.8131 31.9356 12.4762C31.9356 12.1392 31.7554 11.8283 31.4632 11.661Z"
        fill="#272343" />
</svg>
    